<svg width="512" height="512" viewBox="0 0 512 512" fill="none" xmlns="http://www.w3.org/2000/svg">
<path d="M225.92 286.08C234.667 294.4 234.667 308.053 225.92 316.373C217.6 324.693 203.947 324.693 195.627 316.373C154.027 274.773 154.027 207.147 195.627 165.547L271.147 90.0267C312.747 48.4267 380.373 48.4267 421.973 90.0267C463.573 131.627 463.573 199.253 421.973 240.853L390.187 272.64C352.5 239.36 364 238 381.653 221.013L391.68 210.773C416.853 185.813 416.853 145.28 391.68 120.32C366.72 95.1467 326.187 95.1467 301.227 120.32L225.92 195.627C200.747 220.587 200.747 261.12 225.92 286.08ZM286.08 195.627C294.4 187.307 308.053 187.307 316.373 195.627C357.973 237.227 357.973 304.853 316.373 346.453L240.853 421.973C199.253 463.573 131.627 463.573 90.0267 421.973C48.4267 380.373 48.4267 312.747 90.0267 271.147L121.813 239.36C159 281 152.5 267.5 130.347 291.2L120.32 301.227C95.1467 326.187 95.1467 366.72 120.32 391.68C145.28 416.853 185.813 416.853 210.773 391.68L286.08 316.373C311.253 291.413 311.253 250.88 286.08 225.92C277.333 217.6 277.333 203.947 286.08 195.627Z" fill="#E275AA"/>
</svg>
